<?xml version="1.0" encoding="UTF-8" standalone="no"?>
<!-- Created with Inkscape (http://www.inkscape.org/) -->

<svg
   width="43.735443mm"
   height="90.798431mm"
   viewBox="0 0 43.735443 90.798431"
   version="1.1"
   id="svg1"
   xml:space="preserve"
   inkscape:version="1.3 (0e150ed6c4, 2023-07-21)"
   sodipodi:docname="sigil.svg"
   inkscape:dataloss="true"
   xmlns:inkscape="http://www.inkscape.org/namespaces/inkscape"
   xmlns:sodipodi="http://sodipodi.sourceforge.net/DTD/sodipodi-0.dtd"
   xmlns="http://www.w3.org/2000/svg"
   xmlns:svg="http://www.w3.org/2000/svg"><sodipodi:namedview
     id="namedview1"
     pagecolor="#ffffff"
     bordercolor="#000000"
     borderopacity="0.25"
     inkscape:showpageshadow="2"
     inkscape:pageopacity="0.0"
     inkscape:pagecheckerboard="0"
     inkscape:deskcolor="#d1d1d1"
     inkscape:document-units="mm"
     inkscape:zoom="1.4574355"
     inkscape:cx="294.35266"
     inkscape:cy="573.6103"
     inkscape:window-width="2743"
     inkscape:window-height="1478"
     inkscape:window-x="2735"
     inkscape:window-y="-8"
     inkscape:window-maximized="1"
     inkscape:current-layer="layer2" /><defs
     id="defs1" /><g
     inkscape:groupmode="layer"
     id="layer2"
     inkscape:label="Warstwa 2"
     transform="translate(-86.194544,-78.478315)"><path
       style="fill:none;fill-opacity:0.685619;stroke:#003627;stroke-width:1.165;stroke-linecap:round;stroke-dasharray:none;stroke-opacity:1"
       d="m 87.865526,128.16748 c 0,0 3.267726,0.36308 19.424814,-18.8802 16.15709,-19.24327 21.96638,-29.77261 21.96638,-29.77261"
       id="path1" /><path
       style="fill:none;fill-opacity:0.685619;stroke:#003627;stroke-width:1.165;stroke-linecap:round;stroke-dasharray:none;stroke-opacity:1"
       d="m 129.34749,79.060817 c 0,0 -2.63233,5.264671 -2.90464,6.263142 -0.27231,0.998472 -3.72158,13.252445 -4.72005,17.972491 -0.99847,4.72005 -2.08772,15.34016 -4.62928,22.60178 -2.54156,7.26161 -5.71852,14.61399 -7.44316,17.24633 -1.72463,2.63233 -3.72157,5.80929 -6.35391,8.62316 -1.14342,1.22227 -2.7231,2.4508 -4.720046,3.44927 -1.321633,0.66082 -3.903117,0.54462 -5.08313,-0.18154 -1.18001,-0.72616 -1.815402,-0.9077 -2.904643,-2.36002 -0.72662,-0.96882 -0.998472,-3.17696 -0.998472,-3.17696"
       id="path2"
       sodipodi:nodetypes="cssssssssc" /><path
       style="fill:none;fill-opacity:0.685619;stroke:#003627;stroke-width:1.165;stroke-linecap:round;stroke-dasharray:none;stroke-opacity:1"
       d="m 106.93088,94.735884 c 0,0 -0.37792,2.727823 -0.32984,7.016046 0.0432,3.85353 0.51778,9.00208 0.44069,13.97192 -0.14088,9.0828 -0.72154,18.17506 -0.72154,20.49705 0,5.00637 0.22559,7.9653 0.98022,10.3667 0.75804,2.41226 1.77039,5.86065 4.43973,7.73325 1.86533,1.30857 3.63599,2.54072 5.84532,2.16024 2.45457,-0.42271 3.35315,-1.20849 4.63684,-2.87728 1.28368,-1.66879 1.78158,-3.28441 1.78158,-4.05462"
       id="path3"
       sodipodi:nodetypes="csssssssc" /><path
       style="fill:none;fill-opacity:0.685619;stroke:#003627;stroke-width:1.165;stroke-linecap:round;stroke-dasharray:none;stroke-opacity:1"
       d="m 86.777043,168.03424 c 0,0 0.362321,-0.88097 0.952325,-1.51636 0.590008,-0.63539 1.011373,-1.079 1.724634,-1.58848 0.635393,-0.45386 1.505841,-0.57765 2.1331,-0.49924 0.72616,0.0908 1.270783,0.40847 1.951559,1.36156 0.680775,0.95308 0.63783,1.09167 1.27078,1.72462 0.680777,0.68079 1.225399,1.04387 1.724636,1.13463 0.499234,0.0908 0.590006,0.0908 1.497707,-0.40847 0.9077,-0.49923 1.316166,-1.04385 1.679248,-1.67924 0.363078,-0.63539 0.590008,-0.86231 0.726158,-1.27078 0.13616,-0.40847 0.36308,-0.95309 0.36308,-0.95309"
       id="path4"
       sodipodi:nodetypes="cssssscsssc" /><path
       style="fill:none;fill-opacity:0.685619;stroke:#003627;stroke-width:1.165;stroke-linecap:round;stroke-dasharray:none;stroke-opacity:1"
       d="m 124.6564,164.68922 c 0,0 -0.36232,0.88097 -0.95233,1.51636 -0.59001,0.63539 -1.01137,1.079 -1.72463,1.58848 -0.63539,0.45386 -1.50584,0.57765 -2.1331,0.49924 -0.72616,-0.0908 -1.27078,-0.40847 -1.95156,-1.36156 -0.68078,-0.95308 -0.63783,-1.09167 -1.27078,-1.72462 -0.68078,-0.68079 -1.2254,-1.04387 -1.72464,-1.13463 -0.49923,-0.0908 -0.59,-0.0908 -1.4977,0.40847 -0.9077,0.49923 -1.31617,1.04385 -1.67925,1.67924 -0.36308,0.63539 -0.59001,0.86231 -0.72616,1.27078 -0.13616,0.40847 -0.36308,0.95309 -0.36308,0.95309"
       id="path4-5"
       sodipodi:nodetypes="cssssscsssc" /></g></svg>
